<?xml version="1.0" encoding="UTF-8"?>
<svg enable-background="new 0 0 692.546 175.006" version="1.1" viewBox="0 0 692.55 175.01" xml:space="preserve"
	xmlns="http://www.w3.org/2000/svg">
	<g clip-rule="evenodd" fill="#fff" fill-rule="evenodd">
		<path
			d="m368.05 152.92c-1.822 4.162-1.937 8.686-2.746 13.061-0.353 1.904-0.229 3.701 2.282 4.182 1.109 0.211 1.671 0.961 1.491 2.172-0.238 1.6-1.422 1.594-2.616 1.594-4.656 0-9.313 0.02-13.969-0.023-0.884-0.01-2.117 0.488-2.441-0.91-0.309-1.326 0.327-2.457 1.604-2.656 3.355-0.525 4.002-3.023 4.591-5.699 1.89-8.588 3.928-17.145 5.641-25.766 0.463-2.33 1.685-5.459-2.428-6.402-0.743-0.17-0.873-1.268-0.637-2.18 0.322-1.246 1.165-1.373 2.253-1.371 6.985 0.016 13.979-0.234 20.951 0.057 3.978 0.168 7.536 2.045 8.919 6.086 1.491 4.355 0.682 8.586-2.446 12.102-2.606 2.928-6.002 4.547-10.497 5.148 4.179 6.189 3.98 14.51 11.484 18.266 0.859 0.43 0.791 1.355 0.648 2.207-0.178 1.061-0.992 1.074-1.817 1.252-7.121 1.529-10.351-0.131-13.307-6.951-2.041-4.709-4.045-9.432-6.064-14.148-0.978-2.873 0.333-4.438 3.011-5.139 2.428-0.637 4.833-1.322 6.647-3.182 1.756-1.799 2.514-3.945 1.522-6.373-0.853-2.086-2.597-2.982-4.799-2.791-2.833 0.248-3.263 2.582-3.586 4.693-0.678 4.427-2.414 8.528-3.691 12.771z" />
		<path
			d="m542.03 129c0.08 3.117-1.324 5.676-2.242 8.27-0.848 2.396-2.485 3.162-3.973 0.033-2.398-5.043-7.122-3.264-11.03-3.313-3.54-0.047-2.375 3.414-3.039 5.338-0.905 2.627-1.274 5.438-1.947 8.508 4.809-0.354 9.651 1.793 13.282-2.768 0.329-0.412 1.661-0.391 2.313-0.098 1.03 0.465 0.275 1.393 0.129 2.145-0.541 2.77-1.051 5.547-1.58 8.318-0.223 1.164-0.437 2.355-1.995 2.408-1.279 0.043-1.503-0.867-1.907-1.854-1.944-4.74-6.178-2.826-9.553-2.98-3.462-0.16-1.85 3.258-2.868 4.873-0.253 0.402-0.419 0.977-0.358 1.436 0.398 3.061-2.999 6.6 0.85 9.162 2.909 1.938 11.345 0.191 13.927-2.609 0.781-0.846 1.311-1.984 2.209-2.641 0.53-0.387 1.641-0.301 2.344-0.037 0.729 0.271 0.413 1.131 0.241 1.756-0.657 2.402-1.372 4.787-1.986 7.199-0.51 2.004-2.018 1.818-3.536 1.816-9.155-0.02-18.311 0.012-27.465-0.043-0.995-6e-3 -2.517 0.713-2.814-1.068-0.223-1.336 0.548-2.332 1.817-2.557 3.071-0.539 3.804-2.82 4.357-5.357 1.913-8.76 3.967-17.492 5.701-26.287 0.418-2.119 1.801-5.109-2.184-6.016-1.085-0.246-1.082-1.498-0.698-2.545 0.458-1.246 1.512-1.084 2.483-1.086 9.81-7e-3 19.62-3e-3 29.522-3e-3z" />
		<path
			d="m170.15 166.8c1.749 0.268 2.125-0.617 2.688-1.17 1.142-1.121 1.711-3.818 4.063-1.664 2.28 2.086-0.533 3.092-1.283 4.348-0.825 1.381-2.175 2.518-3.473 3.535-6.471 5.076-9.687 4.043-11.575-3.875-3.24 2.65-6.204 5.539-10.399 6.52-4.904 1.146-7.722-0.781-7.055-5.771 0.723-5.408 2.276-10.705 3.438-16.055 0.378-1.74 0.663-3.5 1.028-5.457-2.232 0.408-2.682 2.008-3.637 3.078-0.957 1.072-2.046 0.926-3.119 0.219-0.825-0.545-0.973-1.289-0.371-2.105 2.783-3.783 5.734-7.486 10.644-8.449 4.828-0.947 6.712 0.953 5.721 5.756-1.24 6.018-2.777 11.975-4.209 17.951-0.31 1.291-1.076 2.943 0.138 3.717 1.443 0.92 2.813-0.469 3.833-1.484 4.62-4.605 7.015-10.375 8.573-16.596 0.602-2.4 1.216-4.891 2.384-7.035 1.494-2.742 4.613-3.059 7.037-2.166 1.944 0.717 0.448 3.154 0.153 4.697-1.401 7.317-3.016 14.592-4.579 22.006z" />
		<path
			d="m101.19 167.27c1.309-0.492 1.619-0.572 1.895-0.719 1.695-0.906 2.224-5.398 5.017-2.439 2.069 2.191-1.445 3.664-2.425 5.469-0.304 0.559-0.883 0.998-1.406 1.402-3.028 2.336-6.285 5.348-10.219 3.27-4.182-2.209-1.558-6.191-0.971-9.393 0.867-4.729 2.097-9.391 3.064-14.102 0.244-1.186 1.297-2.754-0.283-3.598-1.625-0.867-2.85 0.539-3.842 1.574-4.01 4.18-6.205 9.357-7.805 14.822-0.604 2.068-1.146 4.156-1.645 6.252-0.832 3.494-3.479 4.6-6.592 5.074-1.996 0.303-3.011 0.055-2.375-2.584 1.553-6.451 2.725-12.994 4.017-19.508 0.351-1.764 0.585-3.551 0.875-5.346-0.669 0-1.028-0.107-1.262 0.018-1.86 0.996-2.593 5.727-5.512 2.619-1.968-2.094 1.631-3.713 2.8-5.457 0.798-1.191 2.174-2.021 3.361-2.922 2.387-1.809 5.345-2.807 7.896-1.428 2.93 1.584 1.276 4.707 0.979 7.701 3.072-2.189 5.117-5.238 8.346-6.736 2.936-1.363 6.178-2.467 8.965-0.627 2.967 1.957 1.969 5.268 1.271 8.242-1.39 5.936-2.685 11.893-4.149 18.416z" />
		<path
			d="m1e-3 157.41c0.167-19.445 15.072-32.1 34.274-29.182 2.261 0.344 3.532 0.799 2.126 3.348-0.553 1-0.73 2.199-1.152 3.277-0.627 1.598-0.257 3.994-2.61 4.32-2.419 0.332-1.976-2.184-2.847-3.414-2.109-2.982-10.377-3.072-12.996 0.031-5.748 6.813-8.103 14.873-7.181 23.615 0.916 8.684 6.015 11.713 14.425 9.121 1.906-0.588 3.85-2.02 4.864 0.869 1.061 3.021-1.661 3.012-3.367 3.629-3.928 1.424-7.979 2.367-12.169 1.689-9.192-1.485-13.454-7.081-13.367-17.303z" />
		<path
			d="m191.51 166.84c2.162 0.156 2.659-1.555 3.477-2.645 0.963-1.281 1.687-1.064 2.888-0.396 1.646 0.916 0.965 1.777 0.254 2.781-2.236 3.158-4.791 5.949-8.506 7.412-2.042 0.805-4.078 1.578-6.134 0.033-2.186-1.641-1.544-3.943-1.145-5.973 1.896-9.611 4.168-19.154 5.838-28.803 0.646-3.742 4.561-8.842-2.937-10.859-1.237-0.334-0.256-2.311 1.2-2.805 3.753-1.275 7.477-2.689 11.311-3.66 3.622-0.918 2.601 1.803 2.237 3.553-2.732 13.17-5.539 26.324-8.309 39.486-0.124 0.595-0.115 1.218-0.174 1.876z" />
		<path
			d="m474.48 166.77c1.54 0.316 1.894-0.6 2.449-1.145 1.151-1.129 1.781-3.768 4.092-1.664 2.265 2.063-0.467 3.158-1.277 4.354-1.688 2.488-4.016 4.441-6.859 5.592-2.161 0.875-4.401 1.811-6.567-0.016-2.045-1.723-1.35-4.021-0.94-6.049 2.035-10.094 4.393-20.123 6.255-30.246 0.597-3.242 3.263-7.705-3.159-9.047-1.494-0.313-0.714-2.305 0.725-2.816 3.887-1.383 7.767-2.904 11.777-3.793 3.896-0.863 2.248 2.275 1.947 3.75-2.688 13.178-5.524 26.326-8.306 39.484-0.1 0.465-0.085 0.953-0.137 1.596z" />
		<path
			d="m587.51 140.87c3.212 0 5.871-0.07 8.523 0.037 0.976 0.039 2.685-0.676 2.621 1.207-0.041 1.199-0.322 2.582-2.159 2.869-1.772 0.277-3.445 1.299-5.316 0.928-3.944-0.783-5.579 0.926-6.068 4.791-0.562 4.441-1.655 8.816-2.522 13.217-0.296 1.5-0.578 3.031 0.801 4.156 1.664 1.359 3.197 0.088 4.594-0.563 1.326-0.617 2.527-1.621 3.594-2.652 1.653-1.596 2.712-0.314 3.773 0.65 1.473 1.342-0.115 1.996-0.815 2.717-3.203 3.295-7.052 5.49-11.565 6.422-6.935 1.434-10.6-2.072-9.383-9.223 1.084-6.371 2.498-12.686 3.817-19.281-1.524-0.078-2.835-0.08-4.128-0.232-1.032-0.123-2.62 0.658-2.919-0.891-0.296-1.533 0.346-3.076 2.257-3.193 5.509-0.334 8.209-4.307 10.865-8.293 1.172-1.758 2.871-2.637 4.623-1.945 2.037 0.805 0.407 2.576 0.253 3.912-0.192 1.646-0.51 3.275-0.846 5.367z" />
		<path
			d="m643.4 146.14c-1.568-0.074-2.882-0.061-4.174-0.223-1.02-0.127-2.635 0.703-2.875-0.934-0.224-1.518 0.387-3.059 2.324-3.178 5.269-0.326 8.034-3.99 10.555-7.906 1.223-1.898 2.974-3.156 4.917-2.262 2.109 0.971 0.171 2.918 0.079 4.424-0.092 1.482-0.409 2.951-0.686 4.816 2.955 0 5.759-0.07 8.555 0.039 0.958 0.037 2.671-0.695 2.553 1.264-0.062 1.033-0.203 2.451-1.729 2.686-1.786 0.271-3.39 1.434-5.305 1.064-4.306-0.826-6.179 0.98-6.599 5.334-0.396 4.115-1.522 8.158-2.334 12.232-0.326 1.639-0.878 3.412 0.767 4.6 1.841 1.33 3.455-0.025 4.983-0.887 1.148-0.648 2.241-1.461 3.193-2.373 1.675-1.605 2.729-0.236 3.758 0.729 1.461 1.371-0.208 2-0.893 2.705-3.199 3.301-7.062 5.477-11.576 6.396-6.661 1.359-10.492-2.094-9.402-8.793 1.064-6.528 2.542-12.989 3.889-19.733z" />
		<path
			d="m207.94 145.94c-1.236 0-2.104 0.174-2.863-0.037-1.393-0.387-3.633 1.322-4.107-1.244-0.456-2.465 1.855-3.32 3.451-3.348 3.947-0.068 5.794-2.699 7.799-5.324 0.907-1.188 1.691-2.492 2.729-3.547 0.971-0.988 2.457-1.402 3.684-0.861 1.39 0.615 0.581 2.057 0.455 3.129-0.727 6.143-0.742 6.041 5.627 6.246 1.464 0.047 3.952-1.471 4.339 1.443 0.35 2.633-2.275 2.326-3.754 3.107-0.287 0.152-0.655 0.363-0.929 0.299-8.435-1.955-8.663 4.223-9.642 9.682-0.526 2.938-1.321 5.848-1.604 8.807-0.415 4.352 1.349 5.434 5.244 3.328 1.444-0.781 2.711-1.912 3.995-2.961 1.493-1.221 2.512-0.109 3.418 0.744 1.232 1.162 0.19 2.016-0.662 2.84-3.668 3.555-7.918 6.021-13.048 6.594-5.492 0.613-8.258-1.859-8.059-7.348 0.261-7.172 2.801-13.963 3.927-21.549z" />
		<path
			d="m130.62 139.91c1.33-4e-3 2.663-0.061 3.989 0.01 1.835 0.098 4.067 0.357 4.308 2.408 0.253 2.162-1.133 4.176-3 5.426-1.842 1.23-2.731-0.277-4.039-1.455-2.446-2.205-5.675-2.533-7.859 0.115-2.491 3.021-0.192 5.104 2.451 6.717 1.555 0.947 3.107 1.908 4.574 2.98 5.974 4.371 5.805 11.752-0.619 15.486-5.621 3.266-11.762 4.242-18.198 2.49-1.325-0.361-2.888-0.568-2.632-2.258 0.352-2.316 1.322-4.574 3.543-5.695 1.116-0.563 2.307-0.461 3.193 1.223 1.35 2.563 3.808 2.646 6.486 1.936 2.059-0.549 3.163-1.666 3.465-3.676 0.437-2.91-1.844-4.012-3.672-5.391-0.389-0.293-0.883-0.439-1.307-0.691-4.08-2.422-8.205-4.842-7.035-10.695 0.924-4.619 5.825-8.309 11.867-8.906 1.481-0.147 2.989-0.022 4.485-0.024z" />
		<path
			d="m547.88 175.01c-1.13-0.195-2.621-0.359-4.061-0.727-1.488-0.381-3.786-0.025-3.671-2.43 0.114-2.398 1.35-4.514 3.492-5.715 1.288-0.723 2.367-0.143 3.23 1.295 1.519 2.525 3.879 2.525 6.538 1.838 2.117-0.545 3.206-1.881 3.475-3.744 0.405-2.816-1.858-4.004-3.821-5.268-0.42-0.271-0.857-0.514-1.29-0.762-3.98-2.277-7.873-4.545-6.964-10.229 0.927-5.789 5.287-7.729 10.063-8.975 3.724-0.973 7.621-0.527 11.419-0.205 1.294 0.109 3.212 0.48 3.084 2.535-0.129 2.07-1.113 3.904-2.815 5.063-1.337 0.91-2.473 0.684-3.742-0.875-2.327-2.861-5.863-3.111-8.181-0.559-2.833 3.121-0.022 5.369 2.598 7.123 1.098 0.734 2.268 1.361 3.379 2.076 3.062 1.973 5.592 4.363 5.287 8.387-0.32 4.238-2.859 6.996-6.557 8.713-3.5 1.629-7.273 2.17-11.463 2.459z" />
		<path
			d="m271.29 147.13c-0.933 0.125-1.113 0.109-1.258 0.174-2.018 0.904-2.891 5.695-5.575 3.023-2.44-2.428 1.586-4.193 2.951-6.07 1.373-1.883 3.488-3.072 5.661-3.906 5.174-1.984 7.453-0.063 6.521 5.416 1.96 0.484 2.436-1.346 3.452-2.26 2.54-2.283 5.243-4.004 8.89-3.666 1.657 0.154 3.513-0.158 4.29 1.738 0.745 1.816-0.403 3.406-1.648 4.367-2.092 1.611-3.152 6.572-7.52 2.119-1.726-1.76-3.857 0.889-5.021 2.686-3.477 5.371-5.111 11.48-6.693 17.584-0.798 3.078-2.065 5.461-5.522 6.281-3.149 0.746-4.605 0.459-3.71-3.359 1.85-7.892 3.422-15.851 5.182-24.127z" />
		<path
			d="m329.97 163.81c-0.897-0.484-1.679-1.115-2.596-0.072-1.05 1.195-1.587 2.957-4.165 3.402 1.952-9.266 3.812-18.088 5.744-27.258-3.984 0-7.472-0.063-10.956 0.01-13.347 0.275-24.934 14.176-22.793 27.297 1.011 6.195 5.758 8.891 11.697 6.896 3.104-1.041 5.104-3.477 7.96-5.793-0.188 3.678-0.585 7.473 4.349 6.449 4.979-1.031 8.431-4.43 11.219-8.541 0.68-1.003 0.753-1.734-0.459-2.39zm-11.423-16.299c-1.355 6.668-3.025 13.211-7.432 18.641-1.274 1.57-2.982 2.898-5.107 2.006-2.051-0.861-1.671-2.984-1.713-4.779 0.653-5.705 2.819-10.779 6.07-15.494 1.921-2.787 4.584-2.014 7.13-2.014 1.039 0 1.26 0.621 1.052 1.64z" />
		<path
			d="m459.92 163.77c-1.207-0.688-1.949-0.859-2.894 0.416-0.862 1.164-1.466 2.957-3.792 2.709 1.915-8.996 3.777-17.742 5.745-26.984-4.577 0-8.583-0.256-12.546 0.047-12.571 0.965-23.313 14.896-21.225 27.299 1.039 6.17 5.815 8.842 11.751 6.82 3.086-1.051 5.081-3.498 7.628-5.561 0.283 6.602 2.374 7.885 7.951 5.07 3.181-1.605 5.621-4.098 7.631-7.027 0.709-1.031 1.37-1.869-0.249-2.789zm-17.769 1.061c-1.431 2.1-3.301 4.352-5.942 3.354-2.951-1.117-1.979-4.188-1.645-6.563 0.557-3.961 2.223-7.533 4.025-11.096 2.116-4.18 5.164-5.707 10.134-4.291-1.137 6.654-2.767 13.012-6.572 18.596z" />
		<path
			d="m632.95 163.78c-1.174-0.664-1.935-0.92-2.905 0.367-0.875 1.162-1.449 2.996-3.812 2.752 0.981-4.588 1.924-8.949 2.845-13.313 0.94-4.455 1.858-8.914 2.852-13.684-4.482 0-8.487-0.25-12.451 0.045-12.57 0.938-23.325 14.834-21.271 27.264 1.021 6.186 5.782 8.871 11.72 6.865 3.096-1.045 5.098-3.48 7.627-5.543 0.343 6.686 2.634 7.939 8.396 4.822 2.98-1.613 5.29-3.994 7.202-6.779 0.688-1.003 1.441-1.867-0.203-2.796zm-11.405-16.272c-1.355 6.668-3.025 13.211-7.432 18.641-1.274 1.57-2.982 2.898-5.107 2.006-2.051-0.861-1.671-2.984-1.713-4.779 0.653-5.705 2.819-10.779 6.07-15.494 1.921-2.787 4.584-2.014 7.13-2.014 1.039 0 1.26 0.621 1.052 1.64z" />
		<path
			d="m56.118 139.87c-11.532 0.025-21.874 12.738-20.526 25.232 0.796 7.383 5.938 11.064 13.279 9.51 10.166-2.152 18.053-12.271 18.176-23.318 0.087-7.864-3.335-11.442-10.929-11.424zm1.618 10.996c-0.304 5.199-1.786 10.098-4.513 14.592-1.362 2.246-2.896 4.236-5.892 3.436-3.159-0.844-2.183-3.625-2.476-5.727 0.331-5.498 2.026-10.453 4.985-15 1.279-1.965 2.826-3.209 5.342-2.543 2.881 0.761 2.673 3.206 2.554 5.242z" />
		<path
			d="m259.37 149.7c-0.41-6.865-3.517-9.803-10.395-9.826-10.513-1.105-21.229 11.492-20.938 23.881 0.199 8.512 5.538 12.656 13.911 10.646 10.572-2.539 18.107-13.221 17.422-24.701zm-14.58 17.125c-1.3 1.861-3.007 2.66-5.123 2.039-2.127-0.625-2.459-2.559-2.422-4.436 0.109-5.59 1.729-10.76 4.621-15.525 1.34-2.207 2.919-4.195 5.957-3.229 3.095 0.986 2.129 3.686 2.384 6.096-0.553 5.324-2.205 10.451-5.417 15.055z" />
		<path
			d="m423.17 143.77c-1.057-3.859-4.347-3.945-7.639-3.918-11.271 0.098-21.005 10.574-21.093 22.781-0.059 8.252 3.333 12.654 9.662 12.225 4.895-0.332 8.75-2.848 11.894-6.504 0.604-0.701 1.514-1.412 0.477-2.514-0.938-0.994-1.965-1.248-3.081-0.447-0.806 0.576-1.409 1.475-2.26 1.943-1.668 0.92-3.444 2.648-5.395 0.91-2.959-2.635-1.688-6.188-1.493-9.406 0.153-2.566 2.337-1.848 3.858-1.865 4.236-0.051 8.226-1.061 11.652-3.502 3.287-2.342 4.479-5.826 3.418-9.703zm-8.784 7.351c-2.313 1.842-5.056 2.197-8.235 1.639 1.008-2.813 2.31-4.883 4.068-6.658 1.618-1.635 3.82-1.998 5.287-0.506 1.869 1.902 0.715 4.067-1.12 5.525z" />
		<path
			d="m692.13 143.67c-1.097-3.828-4.426-3.963-7.359-3.803-14.218 0.098-25.425 16.75-20.313 29.76 1.731 4.41 5.434 5.662 9.735 5.127 2.795-0.348 5.567-1.379 7.586-3.416 1.536-1.551 5.303-2.816 3.423-5.434-2.179-3.033-3.668 1.082-5.554 1.807-1.631 0.627-3.269 2.186-5.01 0.482-2.809-2.746-1.581-6.232-1.386-9.459 0.133-2.211 2.024-1.781 3.449-1.768 4.233 0.039 8.242-0.953 11.731-3.264 3.538-2.338 4.868-5.952 3.698-10.032zm-8.3 7.061c-2.366 2.174-5.23 2.533-8.688 2.066 1.04-2.922 2.367-5.164 4.385-6.938 1.723-1.514 3.864-1.668 5.254 0 1.277 1.534 0.538 3.503-0.951 4.872z" />
		<path
			d="m411 55.268c-4.181 9.549-4.443 19.932-6.301 29.969-0.81 4.371-0.524 8.495 5.236 9.596 2.546 0.486 3.835 2.207 3.422 4.983-0.546 3.673-3.263 3.659-6.003 3.659-10.685-2e-3 -21.369 0.043-32.054-0.057-2.028-0.02-4.858 1.121-5.603-2.086-0.708-3.043 0.751-5.641 3.68-6.098 7.699-1.203 9.183-6.938 10.534-13.078 4.336-19.703 9.013-39.338 12.943-59.122 1.063-5.347 3.866-12.529-5.57-14.691-1.706-0.39-2.004-2.909-1.461-5.004 0.739-2.859 2.673-3.148 5.169-3.144 16.029 0.036 32.079-0.54 48.077 0.13 9.127 0.383 17.293 4.69 20.466 13.963 3.422 9.997 1.564 19.705-5.613 27.77-5.98 6.72-13.772 10.436-24.088 11.817 9.589 14.2 8.935 17.803 15.102 25.38 25.786 31.688 222.46 22.87 231.19 22.374 3.349-0.191 4.465 1.912 4.465 4.207 0 0.584 0.305 4.792-3.46 5.006-51.913 2.951-215.46-2.425-222.35-3.736-17.466-3.324-21.94-7.533-26.53-13.652-7.484-10.503-14.563-27.323-19.197-38.146-2.243-6.594 0.764-10.183 6.908-11.792 5.571-1.461 11.091-3.032 15.254-7.299 4.029-4.13 5.769-9.056 3.494-14.624-1.957-4.789-5.959-6.846-11.012-6.405-6.501 0.569-7.487 5.925-8.229 10.768-1.555 10.166-5.54 19.576-8.47 29.312z" />
		<path
			d="m597.46 8.766c4.594 0.518 11.525-1.979 13.772 4.13 2.246 6.104-3.656 10.263-7.507 14.29-3.105 3.254-5.968 4.24-8.192-1.598-3.586-9.421-10.331-6.595-14.779-1.584-10.507 11.832-15.514 26.179-14.11 42.084 0.84 9.54 5.757 11.653 14.1 6.869 2.608-1.495 4.807-3.691 7.223-5.528 2.14-1.63 4.197-1.31 6.178 0.36 2.259 1.904 1.905 3.902 0.173 5.873-8.09 9.211-17.703 15.897-30.459 15.319-10.44-0.47-16.445-6.794-18.559-16.968-6.689-32.208 18.69-63.296 52.16-63.247z" />
		<path
			d="m682.46 63.607c-2.877-2.046-4.518-1.487-6.597 1.083-1.99 2.46-2.875 6.572-7.391 6.086-0.197-0.773-0.654-1.549-0.522-2.205 2.328-11.572 4.756-23.126 7.108-34.694 5.423-26.633 5.412-26.636-22.311-24.971-29.916 1.797-55.243 34.537-49.336 63.782 2.794 13.837 12.867 19.201 26.416 14.668 6.714-2.247 11.164-7.476 16.771-11.578 2.071 14.001 6.729 16.587 18.864 10.572 7.321-3.628 12.746-9.563 17.594-16.002 1.735-2.308 2.573-4.488-0.596-6.741zm-27.731-30.208c-2.423 12.865-6.71 25.046-15.066 35.382-2.933 3.627-6.747 6.816-11.763 5.127-5.373-1.813-3.19-7.006-3.831-10.99 0.757-13.766 6.5-25.64 14.413-36.634 4.09-5.683 10.645-4.898 15.574-3.366 5.594 1.742 1.338 6.945 0.673 10.481z" />
		<path
			d="m539.48 25.088c-2.229-10.111-8.641-15.637-19.195-16.224-28.225-1.568-52.16 23.389-51.965 54.273 0.123 19.727 12.379 29.517 31.42 25.104 26.608-6.164 45.661-36.297 39.74-63.153zm-31.33 43.583c-3.037 4.845-6.891 8.684-12.986 6.721-6.543-2.108-6.127-8.192-5.67-13.448 1.004-11.488 4.294-22.357 10.43-32.233 3.117-5.017 6.624-9.692 13.606-7.612 7.151 2.129 5.118 8.31 5.625 13.84-0.993 11.495-4.63 22.554-11.005 32.732z" />
	</g>
</svg>
