<svg xmlns="http://www.w3.org/2000/svg" width="8" height="46" fill="none" viewBox="0 0 8 46">
  <path fill="currentColor"
    d="M5.23 44.6a5.5 5.5 0 0 0 .74-.5q.32-.27.5-.6t.18-.75q0-.558-.31-.9a1.02 1.02 0 0 0-.79-.34q-.47 0-.75.22a1.6 1.6 0 0 0-.45.58q-.18.351-.32.75-.09.262-.23.58-.15.322-.37.61-.23.291-.56.48-.33.18-.81.18a1.7 1.7 0 0 1-.93-.26 1.77 1.77 0 0 1-.64-.72 2.24 2.24 0 0 1-.24-1.05q0-.57.22-.99.21-.43.55-.73.33-.3.7-.47l.42.73a3 3 0 0 0-.51.33 1.6 1.6 0 0 0-.41.49q-.16.282-.16.69 0 .571.28.83.27.26.61.26.29 0 .54-.15.24-.15.46-.5.21-.359.42-.97.1-.279.26-.59.16-.309.41-.57.24-.27.59-.44.34-.169.82-.17.46 0 .83.18.37.171.63.48.26.3.4.69.14.38.14.8 0 .57-.24 1.06-.25.48-.65.85-.41.361-.87.59zM.35 39.383v-.85h7v.85zm0-3.6v-1.05l3.28 3.03 3.72-3.18v1.05l-3.7 3.16zm.8-1.604h-.8v-4.9l6.2 3.68v-3.48h.8v4.9l-6.2-3.68zm4.2-5.15H4.6v-2h.75zm-5-2.849v-.85h7v.85zm7-2.1v1.63H6.5v-1.63q0-.59-.18-1.08a2.5 2.5 0 0 0-.53-.84 2.4 2.4 0 0 0-.84-.54 3 3 0 0 0-1.1-.19q-.61 0-1.1.19a2.3 2.3 0 0 0-.83.54q-.35.351-.53.84-.19.49-.19 1.08v1.63H.35v-1.63q0-1.02.44-1.81t1.23-1.24q.78-.45 1.83-.45t1.84.45q.78.45 1.22 1.24t.44 1.81m-2.12-4.957a5.5 5.5 0 0 0 .74-.5q.32-.27.5-.6t.18-.75q0-.56-.31-.9a1.02 1.02 0 0 0-.79-.34q-.47 0-.75.22a1.6 1.6 0 0 0-.45.58q-.18.351-.32.75-.09.26-.23.58-.15.32-.37.61-.23.291-.56.48-.33.18-.81.18a1.7 1.7 0 0 1-.93-.26 1.77 1.77 0 0 1-.64-.72 2.24 2.24 0 0 1-.24-1.05q0-.57.22-.99.21-.43.55-.73.33-.3.7-.47l.42.73a3 3 0 0 0-.51.33 1.6 1.6 0 0 0-.41.49q-.16.28-.16.69 0 .57.28.83.27.26.61.26.29 0 .54-.15.24-.15.46-.5.21-.36.42-.97.1-.28.26-.59t.41-.57q.24-.27.59-.44.34-.17.82-.17.46 0 .83.18.37.171.63.48.26.3.4.69.14.38.14.8 0 .57-.24 1.06-.25.48-.65.85-.41.36-.87.59zm-.63-8.468h-.8v-3.25q.73 0 1.39.22.65.22 1.16.65t.81 1.06q.29.62.29 1.42 0 .76-.26 1.41-.27.65-.75 1.13-.49.48-1.15.75-.66.26-1.44.26t-1.44-.26q-.66-.27-1.14-.75a3.3 3.3 0 0 1-.75-1.13 3.6 3.6 0 0 1-.27-1.41q0-.65.17-1.19.17-.55.5-.98.33-.44.82-.74l.55.6a2.27 2.27 0 0 0-.87.92q-.32.59-.32 1.39 0 .74.35 1.34t.97.96q.61.35 1.43.35.81 0 1.43-.35.62-.36.97-.96t.35-1.34q0-.52-.15-.93a2.2 2.2 0 0 0-.44-.72q-.28-.3-.64-.49a2.8 2.8 0 0 0-.77-.29zM.35.85V0H7.7L2.14 5.3h5.21v.85H0L5.56.85z" />
</svg>
